<svg width="77" height="77" viewBox="0 0 77 77" fill="none" xmlns="http://www.w3.org/2000/svg">
<circle cx="38.5" cy="38.5" r="38.5" fill="#F2F5FF"/>
<path d="M27.3802 21.752C20.6044 25.1494 16.4604 27.274 16.3935 27.3889C16.2595 27.6473 16.2595 49.3527 16.3935 49.6111C16.5083 49.8217 38.1946 60.7031 38.5009 60.7031C38.8071 60.7031 60.4935 49.8217 60.6083 49.6111C60.7423 49.3527 60.7423 27.6473 60.6083 27.3889C60.4839 27.1592 38.7976 16.2969 38.4817 16.3064C38.3573 16.3064 33.3616 18.7564 27.3802 21.752ZM41.1327 19.235C42.5778 19.9623 43.7646 20.5748 43.7646 20.6035C43.755 20.6322 39.4771 22.9195 34.2325 25.6949L24.7196 30.748L21.8007 29.2838C20.1929 28.4895 18.8817 27.81 18.8817 27.7812C18.8817 27.743 38.3478 17.9621 38.4722 17.9334C38.4913 17.9238 39.6876 18.5172 41.1327 19.235ZM47.7745 22.5559C49.88 23.6182 49.9183 23.6373 49.6886 23.7809C49.5642 23.867 45.2671 26.1543 40.147 28.8723L30.8446 33.8105L28.6243 32.7004C26.5093 31.6381 26.4136 31.5807 26.6337 31.4658C26.7677 31.3988 31.0552 29.1211 36.1562 26.4031C41.2667 23.6852 45.4872 21.4744 45.5351 21.4744C45.5925 21.4744 46.5974 21.9625 47.7745 22.5559ZM54.914 26.1256C56.6749 27.0156 58.12 27.7525 58.12 27.7812C58.12 27.81 53.7081 30.0398 48.3105 32.7387L38.5009 37.6387L35.5149 36.1457C32.6821 34.7293 32.5386 34.6432 32.7587 34.5283C32.8927 34.4613 37.1802 32.1836 42.2812 29.4656C47.3917 26.7477 51.5931 24.5273 51.6313 24.5273C51.6792 24.5273 53.153 25.2451 54.914 26.1256ZM23.954 36.2031V40.3279L24.1933 40.5576C24.4229 40.7873 24.4612 40.7969 25.9351 40.7969H27.4376L28.9784 42.3281C30.3374 43.668 30.5575 43.8594 30.8351 43.8594C31.036 43.8594 31.2274 43.7732 31.371 43.6201L31.6103 43.3904V39.6484V35.916L34.6728 37.4473L37.7353 38.9785V48.8359V58.6934L27.7821 53.7168L17.829 48.7402V38.8828V29.0254L20.8915 30.5566L23.954 32.0879V36.2031ZM59.1728 38.8828V48.7402L49.2196 53.7168L39.2665 58.6934V48.8359V38.9785L49.2005 34.0115C54.6556 31.2744 59.1345 29.035 59.1536 29.035C59.1632 29.0254 59.1728 33.4564 59.1728 38.8828ZM30.079 38.1842V41.218L29.0837 40.2418L28.0979 39.2656H26.7868H25.4853V36.0596V32.8535L27.7821 34.002L30.079 35.1504V38.1842Z" fill="#555BFF"/>
</svg>
