<svg width="53" height="47" viewBox="0 0 53 47" fill="none" xmlns="http://www.w3.org/2000/svg">
<path d="M26.9529 0.00394616C12.3199 -0.246054 0.253949 11.4139 0.00394877 26.0469C-0.138051 34.3439 3.55995 41.8009 9.44795 46.7599C9.83295 46.4239 10.2459 46.1159 10.7049 45.8659L18.6119 41.5529C19.6489 40.9869 20.2949 39.8999 20.2949 38.7179V35.4779C20.2949 35.4779 17.9739 32.7019 17.0889 28.8449C16.3549 28.3699 15.8629 27.5489 15.8629 26.6139V23.0679C15.8629 22.2879 16.2099 21.5909 16.7489 21.1029V15.9769C16.7489 15.9769 15.6959 7.99995 26.4989 7.99995C37.3019 7.99995 36.249 15.9769 36.249 15.9769V21.1029C36.789 21.5909 37.1349 22.2879 37.1349 23.0679V26.6139C37.1349 27.8059 36.335 28.8089 35.249 29.1439C34.644 31.0249 33.771 32.8179 32.617 34.4479C32.326 34.8589 32.0539 35.2069 31.8159 35.4779V38.7999C31.8159 40.0229 32.507 41.1419 33.601 41.6879L42.068 45.9209C42.576 46.1749 43.035 46.4959 43.458 46.8529C49.168 42.0909 52.8569 34.9709 52.9939 26.9529C53.2459 12.3199 41.5869 0.253946 26.9529 0.00394616Z" fill="#B4B5B9"/>
</svg>
