<svg width="30" height="30" viewBox="0 0 30 30" fill="none" xmlns="http://www.w3.org/2000/svg">
<path fill-rule="evenodd" clip-rule="evenodd" d="M20.3568 2.5H24.44C26.1294 2.5 27.4999 3.88237 27.4999 5.58773V9.70513C27.4999 11.4092 26.1294 12.7929 24.44 12.7929H20.3568C18.6661 12.7929 17.2957 11.4092 17.2957 9.70513V5.58773C17.2957 3.88237 18.6661 2.5 20.3568 2.5Z" stroke="#53546D" stroke-width="1.5" stroke-linecap="round" stroke-linejoin="round"/>
<path fill-rule="evenodd" clip-rule="evenodd" d="M5.56115 2.5H9.64311C11.3338 2.5 12.7043 3.88237 12.7043 5.58773V9.70513C12.7043 11.4092 11.3338 12.7929 9.64311 12.7929H5.56115C3.87047 12.7929 2.5 11.4092 2.5 9.70513V5.58773C2.5 3.88237 3.87047 2.5 5.56115 2.5Z" stroke="#53546D" stroke-width="1.5" stroke-linecap="round" stroke-linejoin="round"/>
<path fill-rule="evenodd" clip-rule="evenodd" d="M5.56115 17.207H9.64311C11.3338 17.207 12.7043 18.5894 12.7043 20.2961V24.4122C12.7043 26.1175 11.3338 27.4999 9.64311 27.4999H5.56115C3.87047 27.4999 2.5 26.1175 2.5 24.4122V20.2961C2.5 18.5894 3.87047 17.207 5.56115 17.207Z" stroke="#53546D" stroke-width="1.5" stroke-linecap="round" stroke-linejoin="round"/>
<path fill-rule="evenodd" clip-rule="evenodd" d="M20.3568 17.207H24.44C26.1294 17.207 27.4999 18.5894 27.4999 20.2961V24.4122C27.4999 26.1175 26.1294 27.4999 24.44 27.4999H20.3568C18.6661 27.4999 17.2957 26.1175 17.2957 24.4122V20.2961C17.2957 18.5894 18.6661 17.207 20.3568 17.207Z" stroke="#53546D" stroke-width="1.5" stroke-linecap="round" stroke-linejoin="round"/>
</svg>
