<svg width="37" height="37" viewBox="0 0 37 37" fill="none" xmlns="http://www.w3.org/2000/svg">
<path d="M7.39121 10.8778C7.39121 8.95221 8.95292 7.3905 10.8769 7.3905H12.4633C13.3821 7.3905 14.2655 7.02667 14.9192 6.37763L16.0276 5.26763C17.3858 3.90325 19.5935 3.89708 20.9579 5.25529L20.9718 5.26763L22.0818 6.37763C22.7339 7.02667 23.6173 7.3905 24.5376 7.3905H26.1225C28.048 7.3905 29.6097 8.95221 29.6097 10.8778V12.461C29.6097 13.383 29.9735 14.2648 30.6226 14.9185L31.7326 16.0285C33.097 17.3867 33.1047 19.5928 31.7465 20.9587L31.7326 20.9726L30.6226 22.0826C29.9735 22.7332 29.6097 23.6181 29.6097 24.5369V26.1233C29.6097 28.0488 28.048 29.609 26.1225 29.609H24.5376C23.6173 29.609 22.7339 29.9744 22.0818 30.6234L20.9718 31.7319C19.6151 33.0978 17.4074 33.104 16.0415 31.7457C16.0369 31.7411 16.0323 31.7365 16.0276 31.7319L14.9192 30.6234C14.2655 29.9744 13.3821 29.609 12.4633 29.609H10.8769C8.95292 29.609 7.39121 28.0488 7.39121 26.1233V24.5369C7.39121 23.6181 7.02584 22.7332 6.37679 22.0826L5.26834 20.9726C3.90242 19.6144 3.89625 17.4067 5.25446 16.0423L5.26834 16.0285L6.37679 14.9185C7.02584 14.2648 7.39121 13.383 7.39121 12.461V10.8778" stroke="#555BFF" stroke-width="2" stroke-linecap="round" stroke-linejoin="round"/>
<path d="M13 19L15.1924 21.3917C15.985 22.2564 17.3483 22.2564 18.141 21.3917L24 15" stroke="#555BFF" stroke-width="1.5" stroke-linecap="round"/>
</svg>
