<svg width="28" height="28" viewBox="0 0 28 28" fill="none" xmlns="http://www.w3.org/2000/svg">
<path fill-rule="evenodd" clip-rule="evenodd" d="M19.3569 1.5H23.4402C25.1296 1.5 26.5 2.88237 26.5 4.58773V8.70513C26.5 10.4092 25.1296 11.7929 23.4402 11.7929H19.3569C17.6662 11.7929 16.2958 10.4092 16.2958 8.70513V4.58773C16.2958 2.88237 17.6662 1.5 19.3569 1.5Z" stroke="white" stroke-width="1.5" stroke-linecap="round" stroke-linejoin="round"/>
<path fill-rule="evenodd" clip-rule="evenodd" d="M4.56115 1.5H8.64311C10.3338 1.5 11.7043 2.88237 11.7043 4.58773V8.70513C11.7043 10.4092 10.3338 11.7929 8.64311 11.7929H4.56115C2.87047 11.7929 1.5 10.4092 1.5 8.70513V4.58773C1.5 2.88237 2.87047 1.5 4.56115 1.5Z" stroke="white" stroke-width="1.5" stroke-linecap="round" stroke-linejoin="round"/>
<path fill-rule="evenodd" clip-rule="evenodd" d="M4.56115 16.2072H8.64311C10.3338 16.2072 11.7043 17.5895 11.7043 19.2962V23.4123C11.7043 25.1176 10.3338 26.5 8.64311 26.5H4.56115C2.87047 26.5 1.5 25.1176 1.5 23.4123V19.2962C1.5 17.5895 2.87047 16.2072 4.56115 16.2072Z" stroke="white" stroke-width="1.5" stroke-linecap="round" stroke-linejoin="round"/>
<path fill-rule="evenodd" clip-rule="evenodd" d="M19.3569 16.2072H23.4402C25.1296 16.2072 26.5 17.5895 26.5 19.2962V23.4123C26.5 25.1176 25.1296 26.5 23.4402 26.5H19.3569C17.6662 26.5 16.2958 25.1176 16.2958 23.4123V19.2962C16.2958 17.5895 17.6662 16.2072 19.3569 16.2072Z" stroke="white" stroke-width="1.5" stroke-linecap="round" stroke-linejoin="round"/>
</svg>
