<svg width="19" height="19" viewBox="0 0 19 19" fill="none" xmlns="http://www.w3.org/2000/svg">
<path d="M15.2989 7.49609C15.2989 7.49609 14.869 12.828 14.6196 15.0739C14.5009 16.1466 13.8383 16.7752 12.7529 16.795C10.6874 16.8322 8.61959 16.8346 6.55492 16.7911C5.51071 16.7697 4.85917 16.1332 4.7428 15.0795C4.49184 12.8137 4.06434 7.49609 4.06434 7.49609" stroke="#53546D" stroke-linecap="round" stroke-linejoin="round"/>
<path d="M16.394 4.93978H2.96891" stroke="#53546D" stroke-linecap="round" stroke-linejoin="round"/>
<path d="M13.8071 4.93986C13.1857 4.93986 12.6505 4.50048 12.5286 3.89169L12.3362 2.92903C12.2175 2.4849 11.8153 2.17773 11.3569 2.17773H8.00581C7.54744 2.17773 7.14527 2.4849 7.02652 2.92903L6.83414 3.89169C6.71223 4.50048 6.17706 4.93986 5.5556 4.93986" stroke="#53546D" stroke-linecap="round" stroke-linejoin="round"/>
</svg>
