<svg width="30" height="30" viewBox="0 0 30 30" fill="none" xmlns="http://www.w3.org/2000/svg">
<path fill-rule="evenodd" clip-rule="evenodd" d="M15.0002 3.43774C21.3852 3.43774 26.5627 8.61524 26.5627 15.0002C26.5627 21.3852 21.3852 26.5627 15.0002 26.5627C8.61399 26.5627 3.43774 21.3852 3.43774 15.0002C3.43774 8.61524 8.61399 3.43774 15.0002 3.43774Z" stroke="#090A2E" stroke-width="1.5" stroke-linecap="round" stroke-linejoin="round"/>
<path d="M18.616 17.228C18.616 17.6947 18.4993 18.1333 18.266 18.544C18.042 18.9547 17.706 19.3 17.258 19.58C16.8193 19.86 16.2967 20.028 15.69 20.084V21.218H14.78V20.084C13.9027 20 13.1933 19.7247 12.652 19.258C12.1107 18.7913 11.84 18.1753 11.84 17.41H13.548C13.576 17.774 13.6927 18.0773 13.898 18.32C14.1033 18.5533 14.3973 18.7027 14.78 18.768V15.688C14.1547 15.5293 13.646 15.3707 13.254 15.212C12.862 15.044 12.526 14.7827 12.246 14.428C11.9753 14.0733 11.84 13.588 11.84 12.972C11.84 12.1973 12.1107 11.558 12.652 11.054C13.1933 10.5407 13.9027 10.242 14.78 10.158V9.024H15.69V10.158C16.5113 10.2327 17.1693 10.494 17.664 10.942C18.168 11.3807 18.4527 11.9873 18.518 12.762H16.81C16.782 12.4727 16.67 12.216 16.474 11.992C16.278 11.7587 16.0167 11.6 15.69 11.516V14.54C16.3153 14.6893 16.824 14.848 17.216 15.016C17.608 15.1747 17.9393 15.4313 18.21 15.786C18.4807 16.1313 18.616 16.612 18.616 17.228ZM13.464 12.888C13.464 13.2707 13.576 13.5693 13.8 13.784C14.0333 13.9987 14.36 14.1713 14.78 14.302V11.474C14.3787 11.5207 14.0567 11.6653 13.814 11.908C13.5807 12.1507 13.464 12.4773 13.464 12.888ZM15.69 18.768C16.1007 18.7027 16.4227 18.5393 16.656 18.278C16.8893 18.0073 17.006 17.6853 17.006 17.312C17.006 16.9387 16.8893 16.6493 16.656 16.444C16.432 16.2293 16.11 16.0567 15.69 15.926V18.768Z" fill="#090A2E"/>
</svg>
