<svg width="22" height="22" viewBox="0 0 22 22" fill="none" xmlns="http://www.w3.org/2000/svg">
<circle cx="11" cy="11" r="10.25" stroke="#C1C2CB" stroke-width="1.5"/>
<circle cx="7.5" cy="8.5" r="1" fill="#C1C2CB" stroke="#C1C2CB"/>
<circle cx="14.5" cy="8.5" r="1" fill="#C1C2CB" stroke="#C1C2CB"/>
<mask id="path-4-inside-1_651_3025" fill="white">
<path d="M15.951 12.0442C16.2796 12.1798 16.4389 12.5582 16.2689 12.8704C15.8072 13.7178 15.1462 14.4444 14.3391 14.985C13.3532 15.6454 12.1935 15.9986 11.0068 16C9.82014 16.0013 8.6597 15.6508 7.67226 14.9926C6.86395 14.4538 6.20128 13.7288 5.73767 12.8823C5.56692 12.5706 5.72541 12.1918 6.05363 12.0554C6.38184 11.9191 6.75482 12.0775 6.93462 12.3841C7.29436 12.9975 7.78978 13.5241 8.38612 13.9216C9.16174 14.4386 10.0732 14.7139 11.0054 14.7129C11.9375 14.7118 12.8484 14.4344 13.6228 13.9156C14.2182 13.5168 14.7125 12.9891 15.0708 12.3749C15.2499 12.0679 15.6225 11.9085 15.951 12.0442Z"/>
</mask>
<path d="M15.951 12.0442C16.2796 12.1798 16.4389 12.5582 16.2689 12.8704C15.8072 13.7178 15.1462 14.4444 14.3391 14.985C13.3532 15.6454 12.1935 15.9986 11.0068 16C9.82014 16.0013 8.6597 15.6508 7.67226 14.9926C6.86395 14.4538 6.20128 13.7288 5.73767 12.8823C5.56692 12.5706 5.72541 12.1918 6.05363 12.0554C6.38184 11.9191 6.75482 12.0775 6.93462 12.3841C7.29436 12.9975 7.78978 13.5241 8.38612 13.9216C9.16174 14.4386 10.0732 14.7139 11.0054 14.7129C11.9375 14.7118 12.8484 14.4344 13.6228 13.9156C14.2182 13.5168 14.7125 12.9891 15.0708 12.3749C15.2499 12.0679 15.6225 11.9085 15.951 12.0442Z" fill="#C1C2CB" stroke="#C1C2CB" stroke-width="2" mask="url(#path-4-inside-1_651_3025)"/>
</svg>
