<svg width="45" height="45" viewBox="0 0 45 45" fill="none" xmlns="http://www.w3.org/2000/svg">
<g filter="url(#filter0_d_403_1164)">
<path d="M12 21.5C12 15.701 16.701 11 22.5 11C28.299 11 33 15.701 33 21.5C33 27.299 28.299 32 22.5 32C16.701 32 12 27.299 12 21.5Z" fill="#F2F5FF"/>
<path fill-rule="evenodd" clip-rule="evenodd" d="M22.3506 27.0336C20.994 26.1987 19.7319 25.216 18.5871 24.1032C17.7821 23.3018 17.1694 22.3249 16.7957 21.2471C16.1232 19.1564 16.9087 16.763 19.1069 16.0547C20.2623 15.6828 21.5 16 22.5 17.5C23.5 16 24.7328 15.6837 25.8882 16.0547C28.0864 16.763 28.8775 19.1564 28.2051 21.2471C27.8314 22.3249 27.2186 23.3018 26.4137 24.1032C25.2688 25.216 24.0068 26.1987 22.6501 27.0336L22.5032 27.125L22.3506 27.0336Z" stroke="#C1C2CB" stroke-linecap="round" stroke-linejoin="round"/>
</g>
<defs>
<filter id="filter0_d_403_1164" x="0" y="0" width="45" height="45" filterUnits="userSpaceOnUse" color-interpolation-filters="sRGB">
<feFlood flood-opacity="0" result="BackgroundImageFix"/>
<feColorMatrix in="SourceAlpha" type="matrix" values="0 0 0 0 0 0 0 0 0 0 0 0 0 0 0 0 0 0 127 0" result="hardAlpha"/>
<feOffset dy="1"/>
<feGaussianBlur stdDeviation="6"/>
<feComposite in2="hardAlpha" operator="out"/>
<feColorMatrix type="matrix" values="0 0 0 0 0 0 0 0 0 0 0 0 0 0 0 0 0 0 0.09 0"/>
<feBlend mode="normal" in2="BackgroundImageFix" result="effect1_dropShadow_403_1164"/>
<feBlend mode="normal" in="SourceGraphic" in2="effect1_dropShadow_403_1164" result="shape"/>
</filter>
</defs>
</svg>
