<svg width="19" height="19" viewBox="0 0 19 19" fill="none" xmlns="http://www.w3.org/2000/svg">
<path fill-rule="evenodd" clip-rule="evenodd" d="M10.1175 3.20624L10.6875 4.35416H14.6458C15.0813 4.35416 15.4375 4.71041 15.4375 5.14583V11.4792C15.4375 11.9146 15.0813 12.2708 14.6458 12.2708H10.3787C10.0858 12.2708 9.80875 12.1046 9.67417 11.8354L9.10417 10.6875H5.14583V15.4375C5.14583 15.8729 4.78958 16.2292 4.35417 16.2292C3.91875 16.2292 3.5625 15.8729 3.5625 15.4375V3.56249C3.5625 3.12708 3.91875 2.77083 4.35417 2.77083H9.405C9.70583 2.77083 9.98292 2.93708 10.1175 3.20624ZM10.6875 10.6875H13.8542V5.9375H9.89583L9.10417 4.35416H5.14583V9.10416H9.89583L10.6875 10.6875Z" fill="#808080"/>
</svg>
