<svg width="23" height="23" viewBox="0 0 23 23" fill="none" xmlns="http://www.w3.org/2000/svg">
<path d="M12.1773 14.8882L13.5326 16.2435L11.4996 18.2764C9.62836 20.1477 6.59444 20.1477 4.72318 18.2764C2.85192 16.4051 2.85192 13.3712 4.72318 11.5L6.75611 9.46703L8.1114 10.8223L6.07847 12.8553C4.95571 13.978 4.95571 15.7984 6.07847 16.9211C7.20123 18.0439 9.02158 18.0439 10.1443 16.9211L12.1773 14.8882Z" fill="#53546D"/>
<path d="M10.822 8.11174L9.46669 6.75646L11.4996 4.72352C13.3709 2.85226 16.4048 2.85226 18.2761 4.72352C20.1473 6.59479 20.1473 9.6287 18.2761 11.5L16.2431 13.5329L14.8878 12.1776L16.9208 10.1447C18.0435 9.02192 18.0435 7.20157 16.9208 6.07881C15.798 4.95605 13.9777 4.95605 12.8549 6.07881L10.822 8.11174Z" fill="#53546D"/>
<path d="M14.2102 7.4341L7.43376 14.2105L8.78905 15.5658L15.5655 8.78939L14.2102 7.4341Z" fill="#53546D"/>
</svg>
