<svg width="30" height="30" viewBox="0 0 30 30" fill="none" xmlns="http://www.w3.org/2000/svg">
<path d="M5.99291 8.81974C5.99291 7.25849 7.25916 5.99224 8.81916 5.99224H10.1054C10.8504 5.99224 11.5667 5.69724 12.0967 5.17099L12.9954 4.27099C14.0967 3.16474 15.8867 3.15974 16.9929 4.26099L17.0042 4.27099L17.9042 5.17099C18.4329 5.69724 19.1492 5.99224 19.8954 5.99224H21.1804C22.7417 5.99224 24.0079 7.25849 24.0079 8.81974V10.1035C24.0079 10.851 24.3029 11.566 24.8292 12.096L25.7292 12.996C26.8354 14.0972 26.8417 15.886 25.7404 16.9935L25.7292 17.0047L24.8292 17.9047C24.3029 18.4322 24.0079 19.1497 24.0079 19.8947V21.181C24.0079 22.7422 22.7417 24.0072 21.1804 24.0072H19.8954C19.1492 24.0072 18.4329 24.3035 17.9042 24.8297L17.0042 25.7285C15.9042 26.836 14.1142 26.841 13.0067 25.7397C13.0029 25.736 12.9992 25.7322 12.9954 25.7285L12.0967 24.8297C11.5667 24.3035 10.8504 24.0072 10.1054 24.0072H8.81916C7.25916 24.0072 5.99291 22.7422 5.99291 21.181V19.8947C5.99291 19.1497 5.69666 18.4322 5.17041 17.9047L4.27166 17.0047C3.16416 15.9035 3.15916 14.1135 4.26041 13.0072L4.27166 12.996L5.17041 12.096C5.69666 11.566 5.99291 10.851 5.99291 10.1035V8.81974" stroke="#090A2E" stroke-width="1.5" stroke-linecap="round" stroke-linejoin="round"/>
<path d="M14.0489 10.927C14.3483 10.0057 15.6517 10.0057 15.9511 10.927L16.3471 12.1459C16.481 12.5579 16.8649 12.8369 17.2981 12.8369H18.5797C19.5484 12.8369 19.9512 14.0765 19.1675 14.6459L18.1307 15.3992C17.7802 15.6538 17.6335 16.1052 17.7674 16.5172L18.1634 17.7361C18.4628 18.6574 17.4083 19.4235 16.6246 18.8541L15.5878 18.1008C15.2373 17.8462 14.7627 17.8462 14.4122 18.1008L13.3754 18.8541C12.5917 19.4235 11.5372 18.6574 11.8366 17.7361L12.2326 16.5172C12.3665 16.1052 12.2198 15.6538 11.8693 15.3992L10.8325 14.6459C10.0488 14.0765 10.4516 12.8369 11.4203 12.8369H12.7019C13.1351 12.8369 13.519 12.5579 13.6529 12.1459L14.0489 10.927Z" fill="#090A2E"/>
</svg>
