<svg width="25" height="22" viewBox="0 0 25 22" fill="none" xmlns="http://www.w3.org/2000/svg">
<path d="M8.15722 19.7714V16.7047C8.1572 15.9246 8.79312 15.2908 9.58101 15.2856H12.4671C13.2587 15.2856 13.9005 15.9209 13.9005 16.7047V19.7809C13.9003 20.4432 14.4343 20.9845 15.103 21H17.0271C18.9451 21 20.5 19.4607 20.5 17.5618V11.5M15.103 3.5L12.9577 1.6853C11.8049 0.771566 10.1662 0.771566 9.01342 1.6853L2.46203 6.94256C1.86226 7.39702 1.50739 8.09967 1.5 8.84736V17.5618C1.5 19.4607 3.05488 21 4.97291 21H6.89696C7.58235 21 8.13797 20.4499 8.13797 19.7714" stroke="#53546D" stroke-width="1.5" stroke-linecap="round" stroke-linejoin="round"/>
<path fill-rule="evenodd" clip-rule="evenodd" d="M23.8254 4.60638L23.4055 3.8777C23.0502 3.26112 22.2629 3.04841 21.6455 3.4022V3.4022C21.3516 3.57533 21.0009 3.62445 20.6707 3.53873C20.3406 3.453 20.0581 3.23947 19.8855 2.94522C19.7745 2.75819 19.7149 2.54517 19.7126 2.32769V2.32769C19.7226 1.97902 19.5911 1.64114 19.348 1.39102C19.1048 1.14091 18.7708 0.999856 18.422 1H17.576C17.2342 0.999996 16.9066 1.13617 16.6655 1.37839C16.4245 1.62061 16.2899 1.94891 16.2915 2.29064V2.29064C16.2814 2.9962 15.7065 3.56283 15.0009 3.56275C14.7834 3.5605 14.5704 3.50085 14.3833 3.38985V3.38985C13.7659 3.03606 12.9786 3.24877 12.6234 3.86534L12.1726 4.60638C11.8177 5.22219 12.0275 6.00898 12.6419 6.36635V6.36635C13.0412 6.5969 13.2872 7.02297 13.2872 7.48408C13.2872 7.94518 13.0412 8.37126 12.6419 8.60181V8.60181C12.0283 8.95676 11.8183 9.74165 12.1726 10.3556V10.3556L12.5987 11.0905C12.7651 11.3908 13.0444 11.6124 13.3747 11.7063C13.705 11.8002 14.0591 11.7586 14.3586 11.5907V11.5907C14.6531 11.4188 15.004 11.3718 15.3333 11.4599C15.6626 11.548 15.9431 11.7641 16.1124 12.06C16.2234 12.247 16.2831 12.46 16.2853 12.6775V12.6775C16.2853 13.3903 16.8632 13.9682 17.576 13.9682H18.422C19.1324 13.9682 19.7092 13.3941 19.7126 12.6837V12.6837C19.711 12.3409 19.8464 12.0116 20.0888 11.7692C20.3312 11.5268 20.6605 11.3914 21.0033 11.3931C21.2202 11.3989 21.4324 11.4583 21.6208 11.566V11.566C22.2366 11.9208 23.0234 11.711 23.3808 11.0966V11.0966L23.8254 10.3556C23.9975 10.0602 24.0447 9.70837 23.9566 9.37804C23.8685 9.04771 23.6524 8.76612 23.3561 8.59563V8.59563C23.0597 8.42515 22.8436 8.14356 22.7555 7.81323C22.6674 7.48289 22.7146 7.13107 22.8867 6.83567C22.9986 6.64027 23.1607 6.47826 23.3561 6.36635V6.36635C23.9667 6.00917 24.176 5.22698 23.8254 4.61256V4.61256V4.60638Z" stroke="#53546D" stroke-width="1.5" stroke-linecap="round" stroke-linejoin="round"/>
<circle cx="18.0021" cy="7.48357" r="1.77849" stroke="#53546D" stroke-width="1.5" stroke-linecap="round" stroke-linejoin="round"/>
</svg>
