<svg width="16" height="16" viewBox="0 0 16 16" fill="none" xmlns="http://www.w3.org/2000/svg">
<path d="M12.6667 2H3.33333C2.598 2 2 2.598 2 3.33333V12.6667C2 13.402 2.598 14 3.33333 14H12.6667C13.402 14 14 13.402 14 12.6667V3.33333C14 2.598 13.402 2 12.6667 2ZM3.33333 12.6667V3.33333H12.6667L12.668 12.6667H3.33333Z" fill="#3A3B58"/>
<path d="M6.66667 9.33333L6 8.66667L4 11.3333H12L8.66667 6.66667L6.66667 9.33333Z" fill="#3A3B58"/>
<path d="M5.66667 7.33333C6.21895 7.33333 6.66667 6.88562 6.66667 6.33333C6.66667 5.78105 6.21895 5.33333 5.66667 5.33333C5.11438 5.33333 4.66667 5.78105 4.66667 6.33333C4.66667 6.88562 5.11438 7.33333 5.66667 7.33333Z" fill="#3A3B58"/>
</svg>
