<svg width="18" height="18" viewBox="0 0 18 18" fill="none" xmlns="http://www.w3.org/2000/svg">
<path d="M9.70629 12.5355L11.1205 13.9498L8.99918 16.0711C7.04656 18.0237 3.88073 18.0237 1.92811 16.0711C-0.0245095 14.1185 -0.0245095 10.9526 1.92811 9L4.04943 6.87868L5.46365 8.2929L3.34233 10.4142C2.17075 11.5858 2.17075 13.4853 3.34233 14.6569C4.5139 15.8284 6.41339 15.8284 7.58497 14.6569L9.70629 12.5355Z" fill="#3A3B58"/>
<path d="M8.29207 5.46447L6.87786 4.05026L8.99918 1.92894C10.9518 -0.0236848 14.1176 -0.0236853 16.0702 1.92894C18.0229 3.88156 18.0229 7.04738 16.0702 9L13.9489 11.1213L12.5347 9.70711L14.656 7.58579C15.8276 6.41422 15.8276 4.51472 14.656 3.34315C13.4845 2.17158 11.585 2.17158 10.4134 3.34315L8.29207 5.46447Z" fill="#3A3B58"/>
<path d="M11.8276 4.75736L4.75654 11.8284L6.17075 13.2426L13.2418 6.17158L11.8276 4.75736Z" fill="#3A3B58"/>
</svg>
