<svg width="17" height="5" viewBox="0 0 17 5" fill="none" xmlns="http://www.w3.org/2000/svg">
<path d="M2.6875 0.916504C1.62187 0.916504 0.75 1.78838 0.75 2.854C0.75 3.91963 1.62187 4.79151 2.6875 4.79151C3.75312 4.79151 4.625 3.91963 4.625 2.854C4.625 1.78838 3.75312 0.916504 2.6875 0.916504Z" fill="#C1C2CB"/>
<path d="M14.3125 0.916504C13.2469 0.916504 12.375 1.78838 12.375 2.854C12.375 3.91963 13.2469 4.79151 14.3125 4.79151C15.3781 4.79151 16.25 3.91963 16.25 2.854C16.25 1.78838 15.3781 0.916504 14.3125 0.916504Z" fill="#C1C2CB"/>
<path d="M6.5625 2.854C6.5625 1.78838 7.43438 0.916504 8.5 0.916504C9.56563 0.916504 10.4375 1.78838 10.4375 2.854C10.4375 3.91963 9.56563 4.79151 8.5 4.79151C7.43438 4.79151 6.5625 3.91963 6.5625 2.854Z" fill="#C1C2CB"/>
</svg>
