<svg width="29" height="29" viewBox="0 0 29 29" fill="none" xmlns="http://www.w3.org/2000/svg">
<path d="M14.5002 9.66666C15.8293 9.66666 16.9168 8.57916 16.9168 7.24999C16.9168 5.92083 15.8293 4.83333 14.5002 4.83333C13.171 4.83333 12.0835 5.92083 12.0835 7.24999C12.0835 8.57916 13.171 9.66666 14.5002 9.66666Z" fill="#090A2E" fill-opacity="0.5"/>
<path d="M14.5002 12.0833C13.171 12.0833 12.0835 13.1708 12.0835 14.5C12.0835 15.8292 13.171 16.9167 14.5002 16.9167C15.8293 16.9167 16.9168 15.8292 16.9168 14.5C16.9168 13.1708 15.8293 12.0833 14.5002 12.0833Z" fill="#090A2E" fill-opacity="0.5"/>
<path d="M12.0835 21.75C12.0835 20.4208 13.171 19.3333 14.5002 19.3333C15.8293 19.3333 16.9168 20.4208 16.9168 21.75C16.9168 23.0792 15.8293 24.1667 14.5002 24.1667C13.171 24.1667 12.0835 23.0792 12.0835 21.75Z" fill="#090A2E" fill-opacity="0.5"/>
</svg>
