<svg width="739" height="460" viewBox="0 0 739 460" fill="none" xmlns="http://www.w3.org/2000/svg">
<rect width="739" height="460" rx="10" fill="#F1EFEF"/>
<path d="M295.18 262H284.92L267.76 235.42V262H257.5V219.76H267.76L284.92 246.34V219.76H295.18V262ZM319.319 228.16C322.519 228.16 325.439 228.86 328.079 230.26C330.759 231.62 332.879 233.6 334.439 236.2C335.999 238.76 336.779 241.76 336.779 245.2C336.779 248.64 335.999 251.66 334.439 254.26C332.919 256.86 330.839 258.88 328.199 260.32C325.559 261.72 322.619 262.42 319.379 262.42C316.139 262.42 313.179 261.72 310.499 260.32C307.819 258.88 305.699 256.86 304.139 254.26C302.579 251.66 301.799 248.64 301.799 245.2C301.799 241.76 302.579 238.76 304.139 236.2C305.699 233.6 307.799 231.62 310.439 230.26C313.119 228.86 316.079 228.16 319.319 228.16ZM319.319 236.92C317.359 236.92 315.679 237.64 314.279 239.08C312.919 240.48 312.239 242.54 312.239 245.26C312.239 247.98 312.939 250.06 314.339 251.5C315.779 252.94 317.459 253.66 319.379 253.66C321.299 253.66 322.939 252.94 324.299 251.5C325.659 250.06 326.339 247.98 326.339 245.26C326.339 242.54 325.639 240.48 324.239 239.08C322.839 237.64 321.199 236.92 319.319 236.92ZM371.647 219.88V262H361.387V219.88H371.647ZM423.684 228.16C427.764 228.16 431.004 229.42 433.404 231.94C435.804 234.46 437.004 237.96 437.004 242.44V262H426.804V243.82C426.804 241.66 426.224 240 425.064 238.84C423.944 237.64 422.384 237.04 420.384 237.04C418.384 237.04 416.804 237.64 415.644 238.84C414.524 240 413.964 241.66 413.964 243.82V262H403.764V243.82C403.764 241.66 403.184 240 402.024 238.84C400.904 237.64 399.344 237.04 397.344 237.04C395.344 237.04 393.764 237.64 392.604 238.84C391.484 240 390.924 241.66 390.924 243.82V262H380.664V228.52H390.924V233.44C391.924 231.8 393.284 230.52 395.004 229.6C396.764 228.64 398.784 228.16 401.064 228.16C403.544 228.16 405.744 228.72 407.664 229.84C409.624 230.96 411.144 232.56 412.224 234.64C413.464 232.68 415.064 231.12 417.024 229.96C419.024 228.76 421.244 228.16 423.684 228.16ZM458.483 228.16C462.763 228.16 466.043 229.74 468.323 232.9V228.52H478.583V262H468.323V257.14C465.843 260.66 462.563 262.42 458.483 262.42C455.723 262.42 453.163 261.7 450.803 260.26C448.483 258.82 446.643 256.8 445.283 254.2C443.923 251.6 443.243 248.64 443.243 245.32C443.243 242 443.923 239.04 445.283 236.44C446.643 233.84 448.483 231.82 450.803 230.38C453.163 228.9 455.723 228.16 458.483 228.16ZM461.003 237.04C459.803 237.04 458.623 237.36 457.463 238C456.343 238.6 455.423 239.52 454.703 240.76C454.023 242 453.683 243.52 453.683 245.32C453.683 247.12 454.023 248.64 454.703 249.88C455.423 251.08 456.343 252 457.463 252.64C458.583 253.24 459.763 253.54 461.003 253.54C462.203 253.54 463.363 253.24 464.483 252.64C465.643 252 466.563 251.06 467.243 249.82C467.963 248.58 468.323 247.06 468.323 245.26C468.323 243.46 467.963 241.96 467.243 240.76C466.563 239.52 465.663 238.6 464.543 238C463.423 237.36 462.243 237.04 461.003 237.04ZM500.378 228.16C504.658 228.16 507.938 229.74 510.218 232.9V228.52H520.478V261.82C520.478 266.74 519.098 270.76 516.338 273.88C513.618 277 509.398 278.56 503.678 278.56C498.558 278.56 494.498 277.52 491.498 275.44C488.498 273.36 486.798 270.18 486.398 265.9H496.478C497.438 268.42 499.838 269.68 503.678 269.68C505.558 269.68 507.118 269.04 508.358 267.76C509.598 266.52 510.218 264.54 510.218 261.82V257.14C507.738 260.66 504.458 262.42 500.378 262.42C497.618 262.42 495.058 261.7 492.698 260.26C490.378 258.82 488.538 256.8 487.178 254.2C485.818 251.6 485.138 248.64 485.138 245.32C485.138 242 485.818 239.04 487.178 236.44C488.538 233.84 490.378 231.82 492.698 230.38C495.058 228.9 497.618 228.16 500.378 228.16ZM502.898 237.04C501.698 237.04 500.518 237.36 499.358 238C498.238 238.6 497.318 239.52 496.598 240.76C495.918 242 495.578 243.52 495.578 245.32C495.578 247.12 495.918 248.64 496.598 249.88C497.318 251.08 498.238 252 499.358 252.64C500.478 253.24 501.658 253.54 502.898 253.54C504.098 253.54 505.258 253.24 506.378 252.64C507.538 252 508.458 251.06 509.138 249.82C509.858 248.58 510.218 247.06 510.218 245.26C510.218 243.46 509.858 241.96 509.138 240.76C508.458 239.52 507.558 238.6 506.438 238C505.318 237.36 504.138 237.04 502.898 237.04ZM560.812 245.38C560.812 246.54 560.732 247.62 560.572 248.62H537.532C537.732 250.1 538.392 251.32 539.512 252.28C540.632 253.2 542.032 253.66 543.712 253.66C544.992 253.66 545.952 253.48 546.592 253.12C547.232 252.72 547.912 252.08 548.632 251.2H559.732C558.772 254.56 556.852 257.28 553.972 259.36C551.092 261.4 547.672 262.42 543.712 262.42C540.512 262.42 537.632 261.72 535.072 260.32C532.552 258.92 530.572 256.92 529.132 254.32C527.732 251.68 527.032 248.64 527.032 245.2C527.032 241.76 527.732 238.76 529.132 236.2C530.572 233.6 532.552 231.62 535.072 230.26C537.592 228.86 540.452 228.16 543.652 228.16C546.892 228.16 549.812 228.84 552.412 230.2C555.012 231.52 557.052 233.48 558.532 236.08C560.052 238.68 560.812 241.78 560.812 245.38ZM550.132 242.2C549.972 240.64 549.292 239.38 548.092 238.42C546.892 237.42 545.412 236.92 543.652 236.92C542.132 236.92 540.812 237.42 539.692 238.42C538.572 239.38 537.872 240.64 537.592 242.2H550.132Z" fill="#A7A3A3"/>
</svg>
