<svg width="36" height="36" viewBox="0 0 36 36" fill="none" xmlns="http://www.w3.org/2000/svg">
<circle cx="18" cy="18" r="18" fill="#E4E4E8"/>
<path fill-rule="evenodd" clip-rule="evenodd" d="M10.583 16.9167H12.1663C12.2851 14.8187 13.2509 12.8633 14.8501 11.7154L13.7259 10.5833C11.8338 12.0321 10.7018 14.3833 10.583 16.9167ZM26.3926 16.9167H24.8093C24.6905 14.8187 23.7247 12.8633 22.1255 11.7154L23.2497 10.5833C25.1418 12.0321 26.2738 14.3833 26.3926 16.9167ZM23.2497 17.3125C23.2497 14.8821 22.3472 12.8475 20.083 12.3092V10.5833H16.9163V12.3092C14.6443 12.8475 13.7497 14.8742 13.7497 17.3125L13.7497 21.6667L12.1663 22.4583V24.0417H24.833V22.4583L23.2497 21.6667L23.2497 17.3125ZM18.8163 26.385C18.7134 26.4088 18.6105 26.4167 18.4997 26.4167C17.6209 26.4167 16.9164 25.7042 16.9084 24.8333H20.0751C20.0751 25.055 20.0355 25.2608 19.9564 25.4508C19.7505 25.9258 19.3309 26.2742 18.8163 26.385Z" fill="#C1C2CB"/>
</svg>
