<svg width="26" height="30" viewBox="0 0 26 30" fill="none" xmlns="http://www.w3.org/2000/svg">
<path fill-rule="evenodd" clip-rule="evenodd" d="M0.959421 17.5317V17.2215C1.00493 16.3037 1.2991 15.4143 1.81159 14.6453C2.66463 13.7214 3.24858 12.5892 3.50218 11.3676C3.50218 10.4234 3.50218 9.46578 3.58465 8.5216C4.01073 3.97607 8.50523 0.833313 12.9447 0.833313H13.0547C17.4942 0.833313 21.9887 3.97607 22.4286 8.5216C22.511 9.46578 22.4286 10.4234 22.4973 11.3676C22.7543 12.5921 23.3377 13.7277 24.1879 14.6587C24.7042 15.421 24.9988 16.3071 25.04 17.2215V17.5182C25.0707 18.7514 24.646 19.9538 23.8443 20.9038C22.7848 22.0146 21.3471 22.7056 19.8033 22.8461C15.2765 23.3317 10.7092 23.3317 6.18239 22.8461C4.64037 22.6996 3.20474 22.0095 2.14146 20.9038C1.35209 19.9531 0.933093 18.7578 0.959421 17.5317Z" stroke="#090A2E" stroke-width="1.5" stroke-linecap="round" stroke-linejoin="round"/>
<path d="M9.53613 27.2103C10.2434 28.0981 11.2821 28.6726 12.4223 28.8068C13.5625 28.9409 14.7101 28.6237 15.6113 27.9251C15.8884 27.7185 16.1378 27.4783 16.3535 27.2103" stroke="#090A2E" stroke-width="1.5" stroke-linecap="round" stroke-linejoin="round"/>
</svg>
