<svg width="25" height="26" viewBox="0 0 25 26" fill="none" xmlns="http://www.w3.org/2000/svg">
<ellipse cx="12.0613" cy="7.88453" rx="4.97712" ry="5.1762" stroke="#090A2E" stroke-width="1.5" stroke-linecap="round" stroke-linejoin="round"/>
<path fill-rule="evenodd" clip-rule="evenodd" d="M4.16664 20.2598C4.16531 19.8959 4.24356 19.5365 4.39548 19.2087C4.87221 18.2171 6.2166 17.6916 7.33217 17.4536C8.13671 17.275 8.95236 17.1557 9.77305 17.0966C11.2925 16.9578 12.8207 16.9578 14.3402 17.0966C15.1608 17.1564 15.9764 17.2757 16.7811 17.4536C17.8966 17.6916 19.241 18.1675 19.7177 19.2087C20.0233 19.8769 20.0233 20.6526 19.7177 21.3208C19.241 22.362 17.8966 22.838 16.7811 23.0661C15.9775 23.252 15.1615 23.3747 14.3402 23.433C13.1035 23.542 11.861 23.5619 10.6216 23.4925C10.3356 23.4925 10.0591 23.4925 9.77305 23.433C8.95478 23.3754 8.14196 23.2527 7.3417 23.0661C6.2166 22.838 4.88175 22.362 4.39548 21.3208C4.24433 20.9892 4.16616 20.6268 4.16664 20.2598Z" stroke="#090A2E" stroke-width="1.5" stroke-linecap="round" stroke-linejoin="round"/>
</svg>
