<svg width="37" height="37" viewBox="0 0 37 37" fill="none" xmlns="http://www.w3.org/2000/svg">
<path fill-rule="evenodd" clip-rule="evenodd" d="M25.1068 3.08325H30.1428C32.2264 3.08325 33.9167 4.78818 33.9167 6.89145V11.9696C33.9167 14.0713 32.2264 15.7778 30.1428 15.7778H25.1068C23.0217 15.7778 21.3314 14.0713 21.3314 11.9696V6.89145C21.3314 4.78818 23.0217 3.08325 25.1068 3.08325Z" stroke="#555BFF" stroke-width="2" stroke-linecap="round" stroke-linejoin="round"/>
<path fill-rule="evenodd" clip-rule="evenodd" d="M6.85876 3.08325H11.8932C13.9784 3.08325 15.6686 4.78818 15.6686 6.89145V11.9696C15.6686 14.0713 13.9784 15.7778 11.8932 15.7778H6.85876C4.77359 15.7778 3.08334 14.0713 3.08334 11.9696V6.89145C3.08334 4.78818 4.77359 3.08325 6.85876 3.08325Z" stroke="#555BFF" stroke-width="2" stroke-linecap="round" stroke-linejoin="round"/>
<path fill-rule="evenodd" clip-rule="evenodd" d="M6.85876 21.2219H11.8932C13.9784 21.2219 15.6686 22.9268 15.6686 25.0317V30.1083C15.6686 32.2115 13.9784 33.9164 11.8932 33.9164H6.85876C4.77359 33.9164 3.08334 32.2115 3.08334 30.1083V25.0317C3.08334 22.9268 4.77359 21.2219 6.85876 21.2219Z" stroke="#555BFF" stroke-width="2" stroke-linecap="round" stroke-linejoin="round"/>
<path fill-rule="evenodd" clip-rule="evenodd" d="M25.1068 21.2219H30.1428C32.2264 21.2219 33.9167 22.9268 33.9167 25.0317V30.1083C33.9167 32.2115 32.2264 33.9164 30.1428 33.9164H25.1068C23.0217 33.9164 21.3314 32.2115 21.3314 30.1083V25.0317C21.3314 22.9268 23.0217 21.2219 25.1068 21.2219Z" stroke="#555BFF" stroke-width="2" stroke-linecap="round" stroke-linejoin="round"/>
</svg>
