<svg width="88" height="64" viewBox="0 0 88 64" fill="none" xmlns="http://www.w3.org/2000/svg">
<path d="M30.4754 10.125C21.6254 14.5625 16.2129 17.3375 16.1254 17.4875C15.9504 17.825 15.9504 46.175 16.1254 46.5125C16.2754 46.7875 44.6004 61 45.0004 61C45.4004 61 73.7254 46.7875 73.8754 46.5125C74.0504 46.175 74.0504 17.825 73.8754 17.4875C73.7129 17.1875 45.3879 2.99999 44.9754 3.01249C44.8129 3.01249 38.2879 6.2125 30.4754 10.125ZM48.4379 6.83749C50.3254 7.78749 51.8754 8.5875 51.8754 8.625C51.8629 8.6625 46.2754 11.65 39.4254 15.275L27.0004 21.875L23.1879 19.9625C21.0879 18.925 19.3754 18.0375 19.3754 18C19.3754 17.95 44.8004 5.17499 44.9629 5.13749C44.9879 5.12499 46.5504 5.89999 48.4379 6.83749ZM57.1129 11.175C59.8629 12.5625 59.9129 12.5875 59.6129 12.775C59.4504 12.8875 53.8379 15.875 47.1504 19.425L35.0004 25.875L32.1004 24.425C29.3379 23.0375 29.2129 22.9625 29.5004 22.8125C29.6754 22.725 35.2754 19.75 41.9379 16.2C48.6129 12.65 54.1254 9.7625 54.1879 9.7625C54.2629 9.7625 55.5754 10.4 57.1129 11.175ZM66.4379 15.8375C68.7379 17 70.6254 17.9625 70.6254 18C70.6254 18.0375 64.8629 20.95 57.8129 24.475L45.0004 30.875L41.1004 28.925C37.4004 27.075 37.2129 26.9625 37.5004 26.8125C37.6754 26.725 43.2754 23.75 49.9379 20.2C56.6129 16.65 62.1004 13.75 62.1504 13.75C62.2129 13.75 64.1379 14.6875 66.4379 15.8375ZM26.0004 29V34.3875L26.3129 34.6875C26.6129 34.9875 26.6629 35 28.5879 35H30.5504L32.5629 37C34.3379 38.75 34.6254 39 34.9879 39C35.2504 39 35.5004 38.8875 35.6879 38.6875L36.0004 38.3875V33.5V28.625L40.0004 30.625L44.0004 32.625V45.5V58.375L31.0004 51.875L18.0004 45.375V32.5V19.625L22.0004 21.625L26.0004 23.625V29ZM72.0004 32.5V45.375L59.0004 51.875L46.0004 58.375V45.5V32.625L58.9754 26.1375C66.1004 22.5625 71.9504 19.6375 71.9754 19.6375C71.9879 19.625 72.0004 25.4125 72.0004 32.5ZM34.0004 31.5875V35.55L32.7004 34.275L31.4129 33H29.7004H28.0004V28.8125V24.625L31.0004 26.125L34.0004 27.625V31.5875Z" fill="#555BFF"/>
<path fill-rule="evenodd" clip-rule="evenodd" d="M22.1361 43.5005C22.1361 48.8224 17.8225 53.1359 12.5007 53.1359C7.17878 53.1359 2.86523 48.8224 2.86523 43.5005C2.86523 38.1787 7.17878 33.8651 12.5007 33.8651C17.8225 33.8651 22.1361 38.1787 22.1361 43.5005Z" fill="white" stroke="#55FF8F" stroke-width="1.5" stroke-linecap="round" stroke-linejoin="round"/>
<path d="M16.0755 46.5655L12.1484 44.2228V39.1739" stroke="#55FF8F" stroke-width="1.5" stroke-linecap="round" stroke-linejoin="round"/>
<circle cx="71.5" cy="46.5" r="16.5" fill="#55FF8F"/>
<path d="M63 46.2963L68.8049 52L80 41" stroke="white" stroke-width="2" stroke-linecap="round" stroke-linejoin="round"/>
</svg>
