<svg width="18" height="17" viewBox="0 0 18 17" fill="none" xmlns="http://www.w3.org/2000/svg">
<g clip-path="url(#clip0_983_5052)">
<path d="M0.51026 7.33901C-0.389749 8.26399 -0.111667 10.1349 1.44665 10.1349L5.54685 10.1318C5.39182 11.0289 5.16624 12.5145 5.1754 12.655C5.26111 13.9836 6.08269 15.6009 6.11735 15.6674C6.26666 15.9548 7.02253 16.3453 7.78293 16.1774C8.76676 15.9602 8.86718 15.3133 8.86303 15.1348C8.86303 15.1348 8.81991 13.3636 8.81581 12.8917C9.28541 11.8258 10.9062 9.02515 11.3983 8.80934C11.5156 8.88299 11.6501 8.92197 11.7873 8.92203H16.9685C17.4069 8.92203 17.7622 8.55525 17.7622 8.10272L17.7616 0.711314C17.7309 0.312539 17.4032 7.43568e-05 17.0154 7.43568e-05H12.3639C11.9514 7.43568e-05 11.6157 0.346539 11.6157 0.772303V1.01755C11.6157 1.01755 11.4427 1.02979 11.3646 0.978703C11.0655 0.782543 10.6953 0.535688 10.2134 0.535688H3.26904C0.674339 0.535688 0.952744 2.91409 1.18932 3.23941C0.750987 3.73284 0.479643 4.60168 0.849953 5.28904C0.563246 5.59967 0.0622769 6.45437 0.51026 7.33901Z" fill="#C1C2CB"/>
<path d="M1.56397 9.3592H6.45985C6.27086 10.1337 5.92217 12.6021 5.92217 12.6021C6.00124 13.8004 6.77755 15.304 6.77755 15.304C7.7002 15.7049 8.11493 15.155 8.11493 15.155C8.11493 15.155 8.06701 13.2507 8.06701 12.8108C8.06701 12.3708 10.1753 8.85292 10.6904 8.39977C10.9634 8.15954 11.4534 7.82938 11.8525 7.57284V1.89545L11.5328 1.89512C11.1647 1.89512 10.7124 1.30797 10.2133 1.30797L3.15071 1.31114C1.73129 1.31114 1.50527 2.96178 2.44199 3.12027L2.40022 3.30251C1.50209 3.40229 0.955789 4.86851 2.1023 5.16929L2.0602 5.35215C1.20304 5.4453 0.566342 6.86834 1.7626 7.21925L1.72051 7.40183C0.594371 7.58531 0.364854 9.35898 1.56397 9.3592V9.3592Z" fill="white"/>
</g>
<defs>
<clipPath id="clip0_983_5052">
<rect width="17.7624" height="16.2178" fill="white" transform="translate(17.7622 16.2178) rotate(-180)"/>
</clipPath>
</defs>
</svg>
