<svg width="18" height="17" viewBox="0 0 18 17" fill="none" xmlns="http://www.w3.org/2000/svg">
<g clip-path="url(#clip0_983_5011)">
<path d="M17.2519 8.87883C18.152 7.95384 17.8739 6.08295 16.3156 6.08295L12.2154 6.08601C12.3704 5.18896 12.596 3.70332 12.5868 3.56281C12.5011 2.23421 11.6795 0.616966 11.6449 0.550467C11.4955 0.262988 10.7397 -0.127439 9.97927 0.0403957C8.99545 0.25759 8.89503 0.904556 8.89918 1.08302C8.89918 1.08302 8.9423 2.85424 8.9464 3.32614C8.4768 4.39208 6.85601 7.19269 6.36388 7.40849C6.24666 7.33484 6.11209 7.29586 5.97487 7.2958H0.793713C0.355325 7.2958 0 7.66258 0 8.11511L0.000646829 15.5065C0.0313173 15.9053 0.35899 16.2178 0.746764 16.2178H5.39833C5.81079 16.2178 6.14649 15.8713 6.14649 15.4455V15.2003C6.14649 15.2003 6.31952 15.188 6.39757 15.2391C6.69673 15.4353 7.06687 15.6821 7.54882 15.6821H14.4932C17.0879 15.6821 16.8095 13.3037 16.5729 12.9784C17.0112 12.485 17.2826 11.6162 16.9123 10.9288C17.199 10.6182 17.6999 9.76347 17.2519 8.87883Z" fill="#555BFF"/>
<path d="M16.1985 6.85857H11.3026C11.4916 6.08411 11.8403 3.61567 11.8403 3.61567C11.7612 2.4174 10.9849 0.913788 10.9849 0.913788C10.0623 0.512898 9.64752 1.06281 9.64752 1.06281C9.64752 1.06281 9.69544 2.96704 9.69544 3.40699C9.69544 3.847 7.58715 7.36486 7.07205 7.818C6.79909 8.05823 6.30901 8.38839 5.90991 8.64493V14.3223L6.22966 14.3227C6.59776 14.3227 7.05001 14.9098 7.5492 14.9098L14.6117 14.9066C16.0312 14.9066 16.2572 13.256 15.3205 13.0975L15.3622 12.9153C16.2604 12.8155 16.8067 11.3493 15.6602 11.0485L15.7023 10.8656C16.5594 10.7725 17.1961 9.34944 15.9998 8.99852L16.0419 8.81594C17.1681 8.63247 17.3976 6.85879 16.1985 6.85857V6.85857Z" fill="white"/>
</g>
<defs>
<clipPath id="clip0_983_5011">
<rect width="17.7624" height="16.2178" fill="white"/>
</clipPath>
</defs>
</svg>
