<svg width="26" height="26" viewBox="0 0 26 26" fill="none" xmlns="http://www.w3.org/2000/svg">
<path fill-rule="evenodd" clip-rule="evenodd" d="M13.0002 1.43774C19.3852 1.43774 24.5627 6.61524 24.5627 13.0002C24.5627 19.3852 19.3852 24.5627 13.0002 24.5627C6.61399 24.5627 1.43774 19.3852 1.43774 13.0002C1.43774 6.61524 6.61399 1.43774 13.0002 1.43774Z" stroke="white" stroke-width="1.5" stroke-linecap="round" stroke-linejoin="round"/>
<path d="M16.616 15.228C16.616 15.6947 16.4993 16.138 16.266 16.558C16.0327 16.9687 15.6873 17.314 15.23 17.594C14.782 17.8647 14.25 18.028 13.634 18.084V19.218H12.836V18.084C11.94 18.0187 11.2167 17.7527 10.666 17.286C10.1153 16.81 9.84 16.1847 9.84 15.41H11.548C11.576 15.7833 11.6973 16.0913 11.912 16.334C12.1267 16.5673 12.4347 16.7167 12.836 16.782V13.702C12.192 13.5433 11.6693 13.3847 11.268 13.226C10.876 13.058 10.54 12.7967 10.26 12.442C9.98 12.078 9.84 11.588 9.84 10.972C9.84 10.1787 10.1153 9.53 10.666 9.026C11.2167 8.522 11.94 8.23267 12.836 8.158V7.024H13.634V8.158C14.474 8.22333 15.146 8.48 15.65 8.928C16.1633 9.36667 16.4527 9.978 16.518 10.762H14.81C14.782 10.4633 14.6607 10.1973 14.446 9.964C14.2407 9.73067 13.97 9.57667 13.634 9.502V12.526C14.278 12.6753 14.796 12.8293 15.188 12.988C15.58 13.1467 15.916 13.408 16.196 13.772C16.476 14.1267 16.616 14.612 16.616 15.228ZM11.464 10.888C11.464 11.28 11.5807 11.5833 11.814 11.798C12.0567 12.0127 12.3973 12.1853 12.836 12.316V9.46C12.416 9.516 12.08 9.66533 11.828 9.908C11.5853 10.1413 11.464 10.468 11.464 10.888ZM13.634 16.782C14.0633 16.7167 14.3993 16.5533 14.642 16.292C14.8847 16.0213 15.006 15.6947 15.006 15.312C15.006 14.9387 14.8847 14.6447 14.642 14.43C14.4087 14.2153 14.0727 14.0427 13.634 13.912V16.782Z" fill="white"/>
</svg>
