<svg width="18" height="24" viewBox="0 0 18 24" fill="none" xmlns="http://www.w3.org/2000/svg">
<ellipse cx="9.06208" cy="6.88445" rx="4.97712" ry="5.1762" stroke="white" stroke-width="1.5" stroke-linecap="round" stroke-linejoin="round"/>
<path fill-rule="evenodd" clip-rule="evenodd" d="M1.16701 19.2598C1.16567 18.8959 1.24392 18.5365 1.39584 18.2087C1.87258 17.2171 3.21697 16.6915 4.33253 16.4535C5.13707 16.275 5.95273 16.1557 6.77342 16.0965C8.29287 15.9577 9.82109 15.9577 11.3405 16.0965C12.1612 16.1564 12.9768 16.2756 13.7814 16.4535C14.897 16.6915 16.2414 17.1675 16.7181 18.2087C17.0236 18.8769 17.0236 19.6526 16.7181 20.3208C16.2414 21.362 14.897 21.838 13.7814 22.066C12.9778 22.252 12.1619 22.3746 11.3405 22.4329C10.1038 22.542 8.86135 22.5618 7.62201 22.4924C7.33596 22.4924 7.05946 22.4924 6.77342 22.4329C5.95515 22.3753 5.14232 22.2527 4.34207 22.066C3.21697 21.838 1.88211 21.362 1.39584 20.3208C1.2447 19.9892 1.16653 19.6267 1.16701 19.2598Z" stroke="white" stroke-width="1.5" stroke-linecap="round" stroke-linejoin="round"/>
</svg>
