<svg width="980" height="863" viewBox="0 0 980 863" fill="none" xmlns="http://www.w3.org/2000/svg">
<path d="M398.1 771.5C398.1 720.8 439.2 679.6 490 679.6C540.7 679.6 581.9 720.7 581.9 771.5C581.9 822.2 540.8 863.4 490 863.4C439.3 863.4 398.1 822.3 398.1 771.5ZM0 373.4C0 322.7 41.1 281.5 91.9 281.5C142.7 281.5 183.8 322.6 183.8 373.4C183.8 424.2 142.7 465.3 91.9 465.3C41.1 465.3 0 424.1 0 373.4ZM796.3 373.4C796.3 322.7 837.4 281.5 888.2 281.5C939 281.5 980 322.7 980 373.4C980 424.1 938.9 465.3 888.1 465.3C837.3 465.3 796.3 424.1 796.3 373.4ZM116.6 91.9C116.6 41.2 157.7 0 208.5 0C259.2 0 300.4 41.1 300.4 91.9C300.4 142.7 259.3 183.8 208.5 183.8C157.7 183.8 116.6 142.6 116.6 91.9ZM679.6 654.9C679.6 604.2 720.7 563 771.5 563C822.3 563 863.4 604.1 863.4 654.9C863.4 705.7 822.3 746.8 771.5 746.8C720.7 746.8 679.6 705.7 679.6 654.9ZM116.6 654.9C116.6 604.2 157.7 563 208.5 563C259.2 563 300.4 604.1 300.4 654.9C300.4 705.7 259.3 746.8 208.5 746.8C157.7 746.8 116.6 705.7 116.6 654.9ZM679.6 91.9C679.6 41.2 720.7 0 771.5 0C822.3 0 863.4 41.1 863.4 91.9C863.4 142.7 822.3 183.8 771.5 183.8C720.7 183.8 679.6 142.6 679.6 91.9Z" fill="white" fill-opacity="0.69"/>
</svg>
