<svg width="30" height="30" viewBox="0 0 30 30" fill="none" xmlns="http://www.w3.org/2000/svg">
<path d="M5.99291 8.8198C5.99291 7.25855 7.25916 5.9923 8.81916 5.9923H10.1054C10.8504 5.9923 11.5667 5.6973 12.0967 5.17105L12.9954 4.27105C14.0967 3.1648 15.8867 3.1598 16.9929 4.26105L17.0042 4.27105L17.9042 5.17105C18.4329 5.6973 19.1492 5.9923 19.8954 5.9923H21.1804C22.7417 5.9923 24.0079 7.25855 24.0079 8.8198V10.1036C24.0079 10.8511 24.3029 11.5661 24.8292 12.0961L25.7292 12.9961C26.8354 14.0973 26.8417 15.8861 25.7404 16.9936L25.7292 17.0048L24.8292 17.9048C24.3029 18.4323 24.0079 19.1498 24.0079 19.8948V21.1811C24.0079 22.7423 22.7417 24.0073 21.1804 24.0073H19.8954C19.1492 24.0073 18.4329 24.3036 17.9042 24.8298L17.0042 25.7286C15.9042 26.8361 14.1142 26.8411 13.0067 25.7398C13.0029 25.7361 12.9992 25.7323 12.9954 25.7286L12.0967 24.8298C11.5667 24.3036 10.8504 24.0073 10.1054 24.0073H8.81916C7.25916 24.0073 5.99291 22.7423 5.99291 21.1811V19.8948C5.99291 19.1498 5.69666 18.4323 5.17041 17.9048L4.27166 17.0048C3.16416 15.9036 3.15916 14.1136 4.26041 13.0073L4.27166 12.9961L5.17041 12.0961C5.69666 11.5661 5.99291 10.8511 5.99291 10.1036V8.8198" stroke="white" stroke-width="1.5" stroke-linecap="round" stroke-linejoin="round"/>
<path d="M14.0489 10.927C14.3483 10.0057 15.6517 10.0057 15.9511 10.927L16.3471 12.1459C16.481 12.5579 16.8649 12.8369 17.2981 12.8369H18.5797C19.5484 12.8369 19.9512 14.0765 19.1675 14.6459L18.1307 15.3992C17.7802 15.6538 17.6335 16.1052 17.7674 16.5172L18.1634 17.7361C18.4628 18.6574 17.4083 19.4235 16.6246 18.8541L15.5878 18.1008C15.2373 17.8462 14.7627 17.8462 14.4122 18.1008L13.3754 18.8541C12.5917 19.4235 11.5372 18.6574 11.8366 17.7361L12.2326 16.5172C12.3665 16.1052 12.2198 15.6538 11.8693 15.3992L10.8325 14.6459C10.0488 14.0765 10.4516 12.8369 11.4203 12.8369H12.7019C13.1351 12.8369 13.519 12.5579 13.6529 12.1459L14.0489 10.927Z" fill="white"/>
</svg>
